# xmcd CD database file
#
# Track frame offsets:
#	150
#	16950
#	35375
#	64105
#	78927
#	93217
#	115077
#	129042
#	160507
#	179607
#
# Disc length: 2612 seconds
#
# Revision: 0
# Processed by: cddbd v1.4PL0 Copyright (c) Steve Scherf et al.
# Submitted via: CDex 1.50beta10
#
DISCID=6a0a320a
DTITLE=Billy Branch and the Sons of Blues - Where's My Money?
DYEAR=1995
DGENRE=Blues
TTITLE0=Where's My Money?
TTITLE1=You Want It All
TTITLE2=Third Degree
TTITLE3=Small Town Baby
TTITLE4=Son of Juke
TTITLE5=Sons of Blues
TTITLE6=Tell Me What's on Your Mind
TTITLE7=Sex Machine
TTITLE8=Eyesight to the Blind
TTITLE9=Take Out the Time
EXTD=YEAR: 1995
EXTT0=
EXTT1=
EXTT2=
EXTT3=
EXTT4=
EXTT5=
EXTT6=
EXTT7=
EXTT8=
EXTT9=
PLAYORDER=
